<?xml version="1.0" encoding="UTF-8" standalone="no"?><!DOCTYPE svg PUBLIC "-//W3C//DTD SVG 1.1//EN" "http://www.w3.org/Graphics/SVG/1.1/DTD/svg11.dtd"><svg width="100%" height="100%" viewBox="0 0 500 500" version="1.1" xmlns="http://www.w3.org/2000/svg" xmlns:xlink="http://www.w3.org/1999/xlink" xml:space="preserve" xmlns:serif="http://www.serif.com/" style="fill-rule:evenodd;clip-rule:evenodd;stroke-linejoin:round;stroke-miterlimit:1.41421;"><g transform="matrix(1,0,0,1,-1.34491,-32.9167)"><path d="M63.466,242.289l67.873,-176.736l25.197,0l72.334,176.736l-26.643,0l-20.615,-53.527l-73.902,0l-19.409,53.527l-24.835,0Zm50.995,-72.575l59.917,0l-18.445,-48.946c-5.626,-14.869 -9.805,-27.085 -12.538,-36.65c-2.25,11.333 -5.425,22.585 -9.524,33.756l-19.41,51.84Z" style="fill:#fff;fill-rule:nonzero;"/><path d="M293.109,242.289l0,-176.736l66.306,0c13.503,0 24.333,1.788 32.49,5.364c8.158,3.577 14.548,9.082 19.169,16.517c4.621,7.434 6.932,15.21 6.932,23.328c0,7.554 -2.05,14.667 -6.148,21.338c-4.099,6.671 -10.288,12.056 -18.566,16.155c10.689,3.134 18.907,8.479 24.654,16.034c5.746,7.555 8.62,16.476 8.62,26.763c0,8.279 -1.749,15.974 -5.245,23.087c-3.496,7.113 -7.816,12.598 -12.96,16.456c-5.143,3.858 -11.593,6.771 -19.349,8.74c-7.756,1.97 -17.26,2.954 -28.512,2.954l-67.391,0Zm23.388,-102.473l38.217,0c10.367,0 17.802,-0.683 22.303,-2.05c5.947,-1.768 10.428,-4.701 13.442,-8.8c3.014,-4.099 4.521,-9.243 4.521,-15.432c0,-5.867 -1.407,-11.031 -4.22,-15.491c-2.813,-4.461 -6.831,-7.515 -12.056,-9.163c-5.224,-1.647 -14.185,-2.471 -26.884,-2.471l-35.323,0l0,53.407Zm0,81.617l44.003,0c7.555,0 12.86,-0.282 15.914,-0.844c5.385,-0.965 9.886,-2.572 13.502,-4.822c3.617,-2.251 6.591,-5.526 8.921,-9.826c2.331,-4.3 3.497,-9.263 3.497,-14.889c0,-6.59 -1.688,-12.317 -5.064,-17.179c-3.375,-4.862 -8.057,-8.278 -14.045,-10.247c-5.987,-1.969 -14.607,-2.954 -25.859,-2.954l-40.869,0l0,60.761Z" style="fill:#fff;fill-rule:nonzero;"/><path d="M195.355,435.301l23.388,5.907c-4.903,19.209 -13.723,33.856 -26.462,43.943c-12.739,10.087 -28.311,15.13 -46.716,15.13c-19.048,0 -34.539,-3.878 -46.475,-11.634c-11.935,-7.756 -21.017,-18.988 -27.245,-33.696c-6.229,-14.708 -9.344,-30.5 -9.344,-47.378c0,-18.405 3.517,-34.46 10.549,-48.163c7.033,-13.703 17.039,-24.111 30.019,-31.224c12.98,-7.113 27.266,-10.669 42.858,-10.669c17.681,0 32.55,4.5 44.606,13.502c12.056,9.002 20.454,21.66 25.196,37.975l-23.026,5.425c-4.099,-12.859 -10.047,-22.222 -17.843,-28.089c-7.796,-5.867 -17.601,-8.801 -29.415,-8.801c-13.583,0 -24.936,3.255 -34.058,9.765c-9.122,6.51 -15.532,15.251 -19.229,26.221c-3.697,10.971 -5.545,22.283 -5.545,33.937c0,15.029 2.19,28.15 6.57,39.362c4.38,11.212 11.192,19.59 20.435,25.136c9.242,5.546 19.248,8.318 30.018,8.318c13.101,0 24.192,-3.777 33.274,-11.332c9.082,-7.555 15.23,-18.767 18.445,-33.635Z" style="fill:#fff;fill-rule:nonzero;"/><path d="M294.073,497.267l0,-176.737l60.882,0c13.743,0 24.232,0.844 31.465,2.532c10.127,2.331 18.767,6.55 25.92,12.659c9.323,7.876 16.295,17.943 20.916,30.199c4.622,12.257 6.932,26.261 6.932,42.014c0,13.422 -1.567,25.317 -4.701,35.685c-3.135,10.368 -7.153,18.948 -12.056,25.739c-4.903,6.791 -10.267,12.136 -16.094,16.034c-5.827,3.898 -12.86,6.852 -21.098,8.861c-8.238,2.009 -17.702,3.014 -28.391,3.014l-63.775,0Zm23.389,-20.856l37.734,0c11.654,0 20.796,-1.085 27.427,-3.255c6.63,-2.17 11.915,-5.225 15.853,-9.163c5.545,-5.545 9.865,-13 12.96,-22.363c3.094,-9.363 4.641,-20.716 4.641,-34.057c0,-18.486 -3.034,-32.691 -9.102,-42.617c-6.068,-9.926 -13.442,-16.577 -22.122,-19.952c-6.269,-2.412 -16.356,-3.617 -30.26,-3.617l-37.131,0l0,135.024Z" style="fill:#fff;fill-rule:nonzero;"/></g></svg>