<?xml version="1.0" encoding="utf-8"?>
<!-- Generator: Adobe Illustrator 18.1.1, SVG Export Plug-In . SVG Version: 6.00 Build 0)  -->
<!DOCTYPE svg PUBLIC "-//W3C//DTD SVG 1.1//EN" "http://www.w3.org/Graphics/SVG/1.1/DTD/svg11.dtd" [
	<!ENTITY ns_extend "http://ns.adobe.com/Extensibility/1.0/">
	<!ENTITY ns_ai "http://ns.adobe.com/AdobeIllustrator/10.0/">
	<!ENTITY ns_graphs "http://ns.adobe.com/Graphs/1.0/">
	<!ENTITY ns_vars "http://ns.adobe.com/Variables/1.0/">
	<!ENTITY ns_imrep "http://ns.adobe.com/ImageReplacement/1.0/">
	<!ENTITY ns_sfw "http://ns.adobe.com/SaveForWeb/1.0/">
	<!ENTITY ns_custom "http://ns.adobe.com/GenericCustomNamespace/1.0/">
	<!ENTITY ns_adobe_xpath "http://ns.adobe.com/XPath/1.0/">
]>
<svg version="1.1" id="Layer_1" xmlns:x="&ns_extend;" xmlns:i="&ns_ai;" xmlns:graph="&ns_graphs;"
	 xmlns="http://www.w3.org/2000/svg" xmlns:xlink="http://www.w3.org/1999/xlink" x="0px" y="0px" viewBox="2610 0 200 200"
	 enable-background="new 2610 0 200 200" xml:space="preserve">
<metadata>
	<sfw  xmlns="&ns_sfw;">
		<slices></slices>
		<sliceSourceBounds  width="2810" height="1806.3" bottomLeftOrigin="true" y="-1606.3" x="0"></sliceSourceBounds>
	</sfw>
</metadata>
<g>
	<g>
		<path fill="#FFFFFF" d="M2710,200c-54.2,0-100-47.2-100-103.2c0-1.8,1.5-3.3,3.3-3.3h96.7V3.3c0-1.8,1.5-3.3,3.3-3.3
			c52.4,0,96.7,45.8,96.7,100C2810,155.1,2765.1,200,2710,200z M2616.7,100.1c1.8,50.8,43.8,93.2,93.3,93.2
			c51.5,0,93.3-41.9,93.3-93.3c0-49.4-39.3-91.4-86.7-93.3v90.1c0,1.8-1.5,3.3-3.3,3.3L2616.7,100.1L2616.7,100.1z"/>
	</g>
	<g>
		<path fill="#FFFFFF" d="M2789.8,100.1H2773c-1.8,0-3.3-1.5-3.3-3.3s1.5-3.3,3.3-3.3h16.8c1.8,0,3.3,1.5,3.3,3.3
			S2791.7,100.1,2789.8,100.1z"/>
	</g>
	<g>
		<path fill="#FFFFFF" d="M2766.5,159.8c-0.8,0-1.7-0.3-2.4-1l-11.9-11.9c-1.3-1.3-1.3-3.4,0-4.7c1.3-1.3,3.4-1.3,4.7,0l11.9,11.9
			c1.3,1.3,1.3,3.4,0,4.7C2768.2,159.5,2767.3,159.8,2766.5,159.8z"/>
	</g>
	<g>
		<path fill="#FFFFFF" d="M2665.4,58.8c-0.8,0-1.7-0.3-2.4-1l-11.9-11.9c-1.3-1.3-1.3-3.4,0-4.7c1.3-1.3,3.4-1.3,4.7,0l11.9,11.9
			c1.3,1.3,1.3,3.4,0,4.7C2667.1,58.4,2666.2,58.8,2665.4,58.8z"/>
	</g>
	<g>
		<path fill="#FFFFFF" d="M2714.2,183.2c-1.8,0-3.3-1.5-3.3-3.3V163c0-1.8,1.5-3.3,3.3-3.3s3.3,1.5,3.3,3.3v16.8
			C2717.5,181.7,2716,183.2,2714.2,183.2z"/>
	</g>
	<g>
		<path fill="#FFFFFF" d="M2653.5,159.8c-0.8,0-1.7-0.3-2.4-1c-1.3-1.3-1.3-3.4,0-4.7l11.9-11.9c1.3-1.3,3.4-1.3,4.7,0
			c1.3,1.3,1.3,3.4,0,4.7l-11.9,11.9C2655.2,159.5,2654.4,159.8,2653.5,159.8z"/>
	</g>
	<g>
		<path fill="#FFFFFF" d="M2754.6,58.8c-0.8,0-1.7-0.3-2.4-1c-1.3-1.3-1.3-3.4,0-4.7l11.9-11.9c1.3-1.3,3.4-1.3,4.7,0
			c1.3,1.3,1.3,3.4,0,4.7l-11.9,11.9C2756.3,58.4,2755.4,58.8,2754.6,58.8z"/>
	</g>
</g>
</svg>
