<?xml version="1.0" encoding="utf-8"?>
<!-- Generator: Adobe Illustrator 17.1.0, SVG Export Plug-In . SVG Version: 6.00 Build 0)  -->
<!DOCTYPE svg PUBLIC "-//W3C//DTD SVG 1.1//EN" "http://www.w3.org/Graphics/SVG/1.1/DTD/svg11.dtd">
<svg version="1.1" id="Layer_1" xmlns="http://www.w3.org/2000/svg" xmlns:xlink="http://www.w3.org/1999/xlink" x="0px" y="0px"
	 viewBox="0 0 50 50" enable-background="new 0 0 50 50" xml:space="preserve">
<g>
	<path fill="#FFFFFF" d="M41.604,3.536V0.218h-8.297v3.319H16.712V0.218H8.415v3.319H0.118V50h49.782V3.536H41.604z M34.966,1.877
		h4.978v6.638h-4.978V1.877z M10.085,1.877h4.978v6.638h-4.978V1.877z M48.241,48.341H1.778V16.812h46.463V48.341z M48.241,15.152
		H1.778V5.196h6.638v4.978h8.297V5.196h16.594v4.978h8.297V5.196h6.638C48.241,5.196,48.241,15.152,48.241,15.152z"/>
	<path fill="#FFFFFF" d="M11.744,44.992h1.659v-3.279h9.956v3.279h1.659v-3.279h9.956v3.279h1.659v-3.279h8.258v-1.669h-8.258
		v-6.638h8.258v-1.659h-8.258v-6.638h8.258v-1.659h-8.258v-3.576h-1.659v3.576h-9.956v-3.576H23.36v3.576h-9.956v-3.576h-1.659
		v3.576H5.146v1.659h6.598v6.638H5.146v1.659h6.598v6.638H5.146v1.659h6.598C11.744,41.703,11.744,44.992,11.744,44.992z
		 M25.01,25.109h9.956v6.638H25.01V25.109z M25.01,33.406h9.956v6.638H25.01V33.406z M13.394,25.109h9.956v6.638h-9.956V25.109z
		 M13.394,33.406h9.956v6.638h-9.956V33.406z"/>
</g>
</svg>
