<?xml version="1.0" encoding="utf-8"?>
<!-- Generator: Adobe Illustrator 19.1.0, SVG Export Plug-In . SVG Version: 6.00 Build 0)  -->
<!DOCTYPE svg PUBLIC "-//W3C//DTD SVG 1.1//EN" "http://www.w3.org/Graphics/SVG/1.1/DTD/svg11.dtd" [
	<!ENTITY ns_extend "http://ns.adobe.com/Extensibility/1.0/">
	<!ENTITY ns_ai "http://ns.adobe.com/AdobeIllustrator/10.0/">
	<!ENTITY ns_graphs "http://ns.adobe.com/Graphs/1.0/">
	<!ENTITY ns_vars "http://ns.adobe.com/Variables/1.0/">
	<!ENTITY ns_imrep "http://ns.adobe.com/ImageReplacement/1.0/">
	<!ENTITY ns_sfw "http://ns.adobe.com/SaveForWeb/1.0/">
	<!ENTITY ns_custom "http://ns.adobe.com/GenericCustomNamespace/1.0/">
	<!ENTITY ns_adobe_xpath "http://ns.adobe.com/XPath/1.0/">
]>
<svg version="1.1" id="Layer_1" xmlns:x="&ns_extend;" xmlns:i="&ns_ai;" xmlns:graph="&ns_graphs;"
	 xmlns="http://www.w3.org/2000/svg" xmlns:xlink="http://www.w3.org/1999/xlink" x="0px" y="0px" viewBox="0 0 500 500"
	 style="enable-background:new 0 0 500 500;" xml:space="preserve">
<style type="text/css">
	.st0{fill:#0093D3;}
</style>
<metadata>
	<sfw  xmlns="&ns_sfw;">
		<slices></slices>
		<sliceSourceBounds  width="485.8" height="485.2" x="8.1" y="-491.6" bottomLeftOrigin="true"></sliceSourceBounds>
	</sfw>
</metadata>
<g id="ASK_HU">
	<path class="st0" d="M422.8,189.1c2.7,0,5.3-1,7.2-2.9l60.9-60.4c4-3.9,4-10.3,0.1-14.3l-60.4-60.9c-1.9-1.9-4.4-3-7.1-3
		l-171.8-0.7l0.1-30.3c0-5.6-4.5-10.1-10.1-10.1c-5.6,0-10.1,4.5-10.1,10.1l-0.1,30.3L79.8,46.2c-5.6,0-10.1,4.5-10.1,10.1
		l-0.5,121.3c0,5.6,4.5,10.1,10.1,10.1l151.6,0.6l-0.1,20.2L79.1,208c-2.7,0-5.3,1-7.2,2.9l-60.9,60.4c-4,3.9-4,10.3-0.1,14.3
		l60.4,60.9c1.9,1.9,4.4,3,7.1,3l151.6,0.6l-0.5,131.4c0,5.6,4.5,10.1,10.1,10.1c5.6,0,10.1-4.5,10.1-10.1l0.5-131.4l171.8,0.7
		c5.6,0,10.1-4.5,10.1-10.1l0.5-121.3c0-5.6-4.5-10.1-10.1-10.1l-171.8-0.7l0.1-20.2L422.8,189.1z M412.2,330.6l-329.4-1.3
		l-50.3-50.7l50.7-50.3l329.4,1.3L412.2,330.6z M89.8,66.5l329.4,1.3l50.3,50.7l-50.7,50.3l-329.4-1.3L89.8,66.5z"/>
</g>
</svg>
