<?xml version="1.0" encoding="UTF-8" standalone="no"?>
<svg
   xmlns:dc="http://purl.org/dc/elements/1.1/"
   xmlns:cc="http://creativecommons.org/ns#"
   xmlns:rdf="http://www.w3.org/1999/02/22-rdf-syntax-ns#"
   xmlns:svg="http://www.w3.org/2000/svg"
   xmlns="http://www.w3.org/2000/svg"
   xmlns:sodipodi="http://sodipodi.sourceforge.net/DTD/sodipodi-0.dtd"
   xmlns:inkscape="http://www.inkscape.org/namespaces/inkscape"
   height="496pt"
   viewBox="0 0 496 496"
   width="496pt"
   version="1.1"
   id="svg10"
   sodipodi:docname="begeleiding icon.svg"
   inkscape:version="0.92.4 (5da689c313, 2019-01-14)">
  <metadata
     id="metadata16">
    <rdf:RDF>
      <cc:Work
         rdf:about="">
        <dc:format>image/svg+xml</dc:format>
        <dc:type
           rdf:resource="http://purl.org/dc/dcmitype/StillImage" />
        <dc:title></dc:title>
      </cc:Work>
    </rdf:RDF>
  </metadata>
  <defs
     id="defs14" />
  <sodipodi:namedview
     pagecolor="#ffffff"
     bordercolor="#666666"
     borderopacity="1"
     objecttolerance="10"
     gridtolerance="10"
     guidetolerance="10"
     inkscape:pageopacity="0"
     inkscape:pageshadow="2"
     inkscape:window-width="1920"
     inkscape:window-height="986"
     id="namedview12"
     showgrid="false"
     inkscape:zoom="0.71370968"
     inkscape:cx="217.64304"
     inkscape:cy="8.7227395"
     inkscape:window-x="-11"
     inkscape:window-y="-11"
     inkscape:window-maximized="1"
     inkscape:current-layer="svg10" />
  <path
     d="m360 0c-74.992188 0-136 61.007812-136 136s61.007812 136 136 136 136-61.007812 136-136-61.007812-136-136-136zm24 48v16h-48v-16zm-48 32h48v8c0 13.230469-10.769531 24-24 24s-24-10.769531-24-24zm24 48c2.734375 0 5.414062-.28125 8-.808594v16.808594h-16v-16.808594c2.585938.527344 5.265625.808594 8 .808594zm24.648438 32c19 0 35.503906 13.519531 39.222656 32.160156l6.367187 31.839844h-140.476562l6.367187-31.839844c3.71875-18.640625 20.222656-32.160156 39.222656-32.160156zm-84.257813 80h119.226563c-17.585938 10.121094-37.90625 16-59.609376 16-21.703124 0-42.03125-5.878906-59.617187-16zm145.328125-20.183594-6.160156-30.800781c-5.214844-26.085937-28.3125-45.015625-54.910156-45.015625h-.648438v-24h-.246094c9.796875-7.296875 16.246094-18.871094 16.246094-32v-40h16v-16h-112v16h16v40c0 13.128906 6.449219 24.703125 16.246094 32h-.246094v24h-.648438c-26.597656 0-49.695312 18.929688-54.910156 45.015625l-6.160156 30.800781c-21.175781-21.648437-34.28125-51.214844-34.28125-83.816406 0-66.167969 53.832031-120 120-120s120 53.832031 120 120c0 32.601562-13.105469 62.167969-34.28125 83.816406zm0 0"
     id="path2"
     style="fill:#00a1e2;fill-opacity:1"
     inkscape:export-xdpi="96"
     inkscape:export-ydpi="96" />
  <path
     d="m136 224c-74.992188 0-136 61.007812-136 136s61.007812 136 136 136 136-61.007812 136-136-61.007812-136-136-136zm0 112c-13.230469 0-24-10.769531-24-24v-16c0-13.230469 10.769531-24 24-24s24 10.769531 24 24v16c0 13.230469-10.769531 24-24 24zm0 16c2.734375 0 5.414062-.28125 8-.808594v16.808594h-16v-16.808594c2.585938.527344 5.265625.808594 8 .808594zm24.648438 32c19 0 35.503906 13.519531 39.222656 32.160156l6.367187 31.839844h-140.476562l6.367187-31.839844c3.71875-18.640625 20.222656-32.160156 39.222656-32.160156zm-84.257813 80h119.226563c-17.585938 10.121094-37.90625 16-59.609376 16-21.703124 0-42.03125-5.878906-59.617187-16zm145.328125-20.183594-6.160156-30.800781c-5.214844-26.085937-28.3125-45.015625-54.910156-45.015625h-.648438v-24h-.246094c9.796875-7.296875 16.246094-18.871094 16.246094-32v-16c0-22.054688-17.945312-40-40-40s-40 17.945312-40 40v16c0 13.128906 6.449219 24.703125 16.246094 32h-.246094v24h-.648438c-26.597656 0-49.695312 18.929688-54.910156 45.015625l-6.160156 30.800781c-21.175781-21.648437-34.28125-51.214844-34.28125-83.816406 0-66.167969 53.832031-120 120-120s120 53.832031 120 120c0 32.601562-13.105469 62.167969-34.28125 83.816406zm0 0"
     id="path4"
     style="fill:#00a1e2;fill-opacity:1"
     inkscape:export-xdpi="96"
     inkscape:export-ydpi="96" />
  <path
     d="m 422.5,285 h -32 c -4.41406,0 -8,3.57422 -8,8 v 16 c 0,23.74219 -17.32813,43.51172 -40,47.33594 V 341 c 0,-3.23047 -1.95313,-6.16016 -4.9375,-7.39063 -3,-1.25781 -6.42969,-0.55468 -8.71875,1.73438 l -40,40 c -3.12891,3.12891 -3.12891,8.18359 0,11.3125 l 40,40 C 330.37109,428.18359 332.42187,429 334.5,429 c 1.03125,0 2.07031,-0.19141 3.0625,-0.60938 C 340.54687,427.16016 342.5,424.23047 342.5,421 v -16.32813 c 49.19922,-4.07812 88,-45.43359 88,-95.67187 v -16 c 0,-4.42578 -3.58594,-8 -8,-8 z m -8,24 c 0,44.11328 -35.88672,80 -80,80 -4.41406,0 -8,3.57422 -8,8 v 4.6875 L 305.8125,381 326.5,360.3125 V 365 c 0,4.42578 3.58594,8 8,8 35.28906,0 64,-28.71094 64,-64 v -8 h 16 z m 0,0"
     id="path6"
     style="fill:#00a1e2;fill-opacity:1"
     inkscape:export-xdpi="96"
     inkscape:export-ydpi="96"
     inkscape:connector-curvature="0" />
  <path
     d="m 74.229184,206.51388 h 31.999996 c 4.41406,0 8,-3.57422 8,-8 v -16 c 0,-23.74219 17.32812,-43.51172 40,-47.33594 v 15.33594 c 0,3.23047 1.95312,6.16015 4.9375,7.39062 2.98437,1.25 6.42187,0.55469 8.71875,-1.73437 l 40,-40 c 3.12891,-3.12891 3.12891,-8.1836 0,-11.3125 l -40,-40 c -2.29688,-2.29688 -5.73438,-2.99219 -8.71875,-1.73438 -2.98438,1.23047 -4.9375,4.16016 -4.9375,7.39063 V 86.842 c -49.19922,4.07813 -87.999996,45.4336 -87.999996,95.67188 v 16 c 0,4.42578 3.585938,8 8,8 z m 8,-24 c 0,-44.11328 35.886716,-80 79.999996,-80 4.41406,0 8,-3.574223 8,-8 v -4.6875 l 20.6875,20.6875 -20.6875,20.6875 v -4.6875 c 0,-4.42578 -3.58594,-8 -8,-8 -35.28906,0 -63.999996,28.71094 -63.999996,64 v 8 h -16 z m 0,0"
     id="path8"
     style="fill:#00a1e2;fill-opacity:1"
     inkscape:export-xdpi="96"
     inkscape:export-ydpi="96"
     inkscape:connector-curvature="0" />
</svg>
