<?xml version="1.0" encoding="UTF-8" standalone="no"?><!DOCTYPE svg PUBLIC "-//W3C//DTD SVG 1.1//EN"
        "http://www.w3.org/Graphics/SVG/1.1/DTD/svg11.dtd">
<svg width="100%" height="100%" viewBox="0 0 500 500" version="1.1" xmlns="http://www.w3.org/2000/svg"
     xml:space="preserve"
     style="fill-rule:evenodd;clip-rule:evenodd;stroke-linejoin:round;stroke-miterlimit:1.41421;"><path d="M189.667,346.614l0,121.112l-39.998,0l0,-315.742c0,-25.176 3.389,-44.877 10.167,-59.104c6.778,-14.227 18.435,-25.995 34.971,-35.306c16.535,-9.311 34.933,-13.966 55.193,-13.966c29.943,0 52.624,8.603 68.042,25.809c15.419,17.206 23.128,36.014 23.128,56.423c0,19.962 -6.22,36.051 -18.659,48.266c-12.439,12.216 -26.703,19.739 -42.791,22.569c25.92,2.533 45.92,11.843 59.997,27.932c14.078,16.089 21.117,35.902 21.117,59.439c0,25.325 -8.305,48.006 -24.915,68.042c-16.611,20.037 -40.632,30.055 -72.065,30.055c-32.177,0 -56.906,-11.843 -74.187,-35.529Zm35.529,-162.899c27.411,0 47.373,-4.767 59.886,-14.301c12.514,-9.535 18.771,-23.314 18.771,-41.34c0,-14.599 -5.326,-26.814 -15.977,-36.646c-10.652,-9.832 -23.947,-14.748 -39.887,-14.748c-13.854,0 -25.884,3.649 -36.088,10.949c-10.205,7.299 -16.461,15.418 -18.77,24.356c-2.309,8.939 -3.464,24.581 -3.464,46.926l0,90.053c0,25.623 1.788,44.467 5.363,56.534c3.575,12.066 11.247,22.941 23.016,32.624c11.769,9.683 25.325,14.525 40.669,14.525c18.621,0 33.332,-6.369 44.132,-19.105c10.801,-12.737 16.201,-28.491 16.201,-47.261c0,-15.493 -3.985,-29.385 -11.955,-41.675c-7.97,-12.29 -17.802,-20.632 -29.496,-25.027c-11.694,-4.394 -27.225,-6.592 -46.591,-6.592l-5.81,0l0,-29.272Z" style="fill:#fff;fill-rule:nonzero;"/></svg>