<?xml version="1.0" encoding="utf-8"?>
<!-- Generator: Adobe Illustrator 18.1.0, SVG Export Plug-In . SVG Version: 6.00 Build 0)  -->
<!DOCTYPE svg PUBLIC "-//W3C//DTD SVG 1.1//EN" "http://www.w3.org/Graphics/SVG/1.1/DTD/svg11.dtd">
<svg version="1.1" id="Layer_1" xmlns="http://www.w3.org/2000/svg" xmlns:xlink="http://www.w3.org/1999/xlink" x="0px" y="0px"
	 viewBox="0 0 250 250" enable-background="new 0 0 250 250" xml:space="preserve">
<g>
	<g>
		<path fill="#A4A3A3" d="M137.9,236.1H12.3c-2.2,0-3.9-1.8-3.9-3.9v-212c0-2.2,1.8-3.9,3.9-3.9h125.6c2.2,0,3.9,1.8,3.9,3.9v43.5
			c0,2.2-1.8,3.9-3.9,3.9c-2.2,0-3.9-1.8-3.9-3.9V24.1H16.2v204.2H134v-35.8c0-2.2,1.8-3.9,3.9-3.9c2.2,0,3.9,1.8,3.9,3.9v39.8
			C141.8,234.3,140.1,236.1,137.9,236.1z"/>
	</g>
	<path fill="#A4A3A3" d="M243.3,132.2c0.1-0.1,0.1-0.2,0.2-0.3c0.1-0.1,0.1-0.2,0.2-0.3c0.1-0.1,0.1-0.3,0.1-0.4
		c0-0.1,0.1-0.2,0.1-0.3c0-0.2,0-0.3,0-0.5c0-0.1,0-0.2,0-0.3c0,0,0,0,0,0c0-0.2,0-0.3-0.1-0.5c0-0.1,0-0.2,0-0.3
		c-0.1-0.2-0.1-0.5-0.2-0.7c-0.1-0.2-0.2-0.3-0.3-0.5c0-0.1-0.1-0.1-0.1-0.2c-0.1-0.2-0.3-0.4-0.5-0.6l-47.1-47.1
		c-1.5-1.5-4-1.5-5.6,0c-1.5,1.5-1.5,4,0,5.6l40.4,40.4H112.7c-2.2,0-3.9,1.8-3.9,3.9c0,2.2,1.8,3.9,3.9,3.9H231l-41,44.4
		c-1.5,1.6-1.4,4.1,0.2,5.5c0.8,0.7,1.7,1,2.7,1c1.1,0,2.1-0.4,2.9-1.3l47.1-51c0.1-0.1,0.1-0.2,0.2-0.2
		C243.1,132.4,243.2,132.3,243.3,132.2z"/>
</g>
</svg>
