<?xml version="1.0" encoding="utf-8"?>
<!-- Generator: Adobe Illustrator 18.0.0, SVG Export Plug-In . SVG Version: 6.00 Build 0)  -->
<!DOCTYPE svg PUBLIC "-//W3C//DTD SVG 1.1//EN" "http://www.w3.org/Graphics/SVG/1.1/DTD/svg11.dtd">
<svg version="1.1" id="Layer_1" xmlns="http://www.w3.org/2000/svg" xmlns:xlink="http://www.w3.org/1999/xlink" x="0px" y="0px"
	 viewBox="0 0 30 30" enable-background="new 0 0 30 30" xml:space="preserve">
<g>
	<g>
		<path fill="#A4A3A3" d="M17.4,29.7h-4.9c-0.3,0-0.5-0.2-0.5-0.5v-3.7c-0.2-0.1-0.4-0.1-0.6-0.2c-0.6-0.2-1.2-0.4-1.8-0.7l-2.6,2.6
			c-0.2,0.2-0.5,0.2-0.7,0l-3.5-3.5c-0.1-0.1-0.1-0.2-0.1-0.3c0-0.1,0.1-0.3,0.1-0.3l2.6-2.6C5,19.5,4.6,18.2,4.4,17H0.8
			c-0.3,0-0.5-0.2-0.5-0.5v-3.9c0-0.3,0.2-0.5,0.5-0.5h3.6c0.2-0.7,0.6-1.7,1-2.4L2.9,7.1c-0.2-0.2-0.2-0.5,0-0.7l3.5-3.5
			c0.2-0.2,0.5-0.2,0.7,0l2.6,2.6c0.8-0.4,1.8-0.8,2.4-1V0.8c0-0.3,0.2-0.5,0.5-0.5h4.9c0.3,0,0.5,0.2,0.5,0.5v3.6
			c0.6,0.2,1.7,0.6,2.4,1l2.6-2.6c0.2-0.2,0.5-0.2,0.7,0l3.5,3.5c0.1,0.1,0.1,0.2,0.1,0.3c0,0.1-0.1,0.3-0.1,0.3l-2.6,2.6
			c0.4,0.7,0.8,1.6,1,2.4h3.6c0.3,0,0.5,0.2,0.5,0.5v3.9c0,0.3-0.2,0.5-0.5,0.5h-3.6c-0.2,1.9-0.6,2.7-1.1,3.4l2.6,2.6
			c0.2,0.2,0.2,0.5,0,0.7l-3.5,3.5c-0.2,0.2-0.5,0.2-0.7,0l-2.6-2.6c-0.6,0.3-1.2,0.5-1.8,0.7c-0.2,0.1-0.5,0.2-0.6,0.2v3.7
			C17.9,29.4,17.7,29.7,17.4,29.7z M13,28.7H17v-3.5c0-0.2,0.1-0.3,0.3-0.4c0.2-0.1,0.6-0.2,1-0.4c0.6-0.2,1.4-0.5,2-0.8
			c0.2-0.1,0.4-0.1,0.6,0.1l2.5,2.5l2.8-2.8l-2.5-2.5c-0.2-0.2-0.2-0.4-0.1-0.6l0-0.1c0.5-0.8,0.9-1.5,1.1-3.7
			c0-0.2,0.2-0.4,0.5-0.4h3.5V13h-3.5c-0.2,0-0.4-0.2-0.5-0.4c-0.2-1-0.7-2-1.2-2.9c-0.1-0.2-0.1-0.4,0.1-0.6l2.5-2.5l-2.8-2.8
			l-2.5,2.5c-0.2,0.2-0.4,0.2-0.6,0.1c-0.9-0.5-2.4-1.1-2.8-1.2c-0.2,0-0.4-0.2-0.4-0.5V1.3H13v3.5c0,0.2-0.2,0.4-0.4,0.5
			c-0.6,0.1-2,0.6-2.9,1.2C9.6,6.6,9.4,6.6,9.2,6.4L6.7,3.9L3.9,6.7l2.5,2.5c0.2,0.2,0.2,0.4,0.1,0.6c-0.5,0.9-1,2.3-1.2,2.9
			C5.2,12.9,5,13,4.8,13H1.3V16h3.5c0.2,0,0.5,0.2,0.5,0.4c0.2,1.4,0.7,3,1.2,3.8c0.1,0.2,0.1,0.4-0.1,0.6l-2.5,2.5l2.8,2.8l2.5-2.5
			c0.2-0.2,0.4-0.2,0.6-0.1c0.5,0.3,1.3,0.6,2,0.8c0.4,0.2,0.8,0.3,1,0.4c0.2,0.1,0.3,0.3,0.3,0.4V28.7z"/>
	</g>
	<g>
		<path fill="#A4A3A3" d="M15,20.9c-3.2,0-5.9-2.6-5.9-5.9s2.6-5.9,5.9-5.9s5.9,2.6,5.9,5.9S18.2,20.9,15,20.9z M15,10.1
			c-2.7,0-4.9,2.2-4.9,4.9s2.2,4.9,4.9,4.9s4.9-2.2,4.9-4.9S17.7,10.1,15,10.1z"/>
	</g>
</g>
</svg>
