<?xml version="1.0" encoding="utf-8"?>
<!-- Generator: Adobe Illustrator 17.1.0, SVG Export Plug-In . SVG Version: 6.00 Build 0)  -->
<!DOCTYPE svg PUBLIC "-//W3C//DTD SVG 1.1//EN" "http://www.w3.org/Graphics/SVG/1.1/DTD/svg11.dtd">
<svg version="1.1" id="Layer_1" xmlns="http://www.w3.org/2000/svg" xmlns:xlink="http://www.w3.org/1999/xlink" x="0px" y="0px"
	 viewBox="0 0 50 50" enable-background="new 0 0 50 50" xml:space="preserve">
<g>
	<g>
		<g>
			<path fill="#FFFFFF" d="M16.613,48.914c-0.979,0-2.89-0.196-4.401-1.529c-1.399-1.231-2.098-3.095-2.098-5.538V17.56h1.566
				v24.278c0,1.977,0.522,3.44,1.557,4.363c1.548,1.38,3.804,1.128,3.823,1.128l22.805-3.039V11.406l-25.061,3.03
				c-2.638,0-4.699-2.06-4.699-4.699c0-3.878,1.911-4.149,11.067-5.435c3.664-0.513,8.689-1.221,15.393-2.387l0.27,1.548
				c-6.731,1.165-11.766,1.874-15.439,2.396c-9.267,1.305-9.715,1.482-9.715,3.878c0,1.743,1.352,3.105,3.086,3.133l26.674-3.235
				V45.66l-24.175,3.226C17.229,48.886,16.986,48.914,16.613,48.914z"/>
		</g>
	</g>
	<g>
		
			<rect x="26.182" y="-3.293" transform="matrix(0.1368 0.9906 -0.9906 0.1368 31.37 -19.6596)" fill="#FFFFFF" width="1.566" height="22.926"/>
	</g>
</g>
</svg>
