<?xml version="1.0" encoding="UTF-8" standalone="no"?><!DOCTYPE svg PUBLIC "-//W3C//DTD SVG 1.1//EN" "http://www.w3.org/Graphics/SVG/1.1/DTD/svg11.dtd"><svg width="100%" height="100%" viewBox="0 0 500 500" version="1.1" xmlns="http://www.w3.org/2000/svg" xmlns:xlink="http://www.w3.org/1999/xlink" xml:space="preserve" xmlns:serif="http://www.serif.com/" style="fill-rule:evenodd;clip-rule:evenodd;stroke-linejoin:round;stroke-miterlimit:1.41421;"><g><path d="M366.67,195.017l-34.259,-43.356l-184.053,145.431l34.259,43.357l184.053,-145.432Z" style="fill:#fff;"/><path d="M103.782,367.191l39.941,-66.284l34.181,44.04l-74.122,22.244Z" style="fill:#fff;"/></g><path d="M314.366,157.015l-150.883,115.103l-13.29,-0.001c-2.096,-5.933 -3.649,-12.043 -4.641,-18.257l11.675,-6.348c-0.689,-6.243 -0.735,-12.54 -0.137,-18.792l-11.767,-6.177c0.901,-6.228 2.365,-12.36 4.374,-18.323l13.288,-0.195c2.291,-5.848 5.177,-11.446 8.612,-16.704l-7.549,-10.938c3.692,-5.095 7.838,-9.844 12.388,-14.19l11.857,6.002c4.746,-4.114 9.903,-7.729 15.388,-10.788l-1.601,-13.194c5.637,-2.795 11.515,-5.074 17.564,-6.808l7.709,10.826c6.115,-1.438 12.36,-2.242 18.639,-2.402l4.714,-12.426c6.29,0.144 12.554,0.858 18.716,2.134l1.795,13.168c6.082,1.569 11.986,3.759 17.62,6.535l9.949,-8.812c5.502,3.051 10.717,6.594 15.58,10.587m-38.033,29.014c-42.205,-27.406 -96.574,19.006 -90.454,69.004l128.487,-98.018" style="fill:#fff;"/><path d="M195.443,340.251l150.94,-115.028l13.291,0.008c2.092,5.933 3.643,12.045 4.632,18.258l-11.679,6.343c0.687,6.243 0.73,12.54 0.128,18.792l11.764,6.183c-0.904,6.227 -2.371,12.359 -4.383,18.32l-13.289,0.189c-2.293,5.847 -5.182,11.443 -8.62,16.699l7.544,10.942c-3.695,5.093 -7.843,9.841 -12.395,14.185l-11.854,-6.009c-4.748,4.112 -9.907,7.724 -15.394,10.781l1.595,13.194c-5.638,2.793 -11.518,5.069 -17.567,6.8l-7.704,-10.83c-6.115,1.434 -12.361,2.236 -18.64,2.393l-4.72,12.423c-6.29,-0.147 -12.554,-0.864 -18.715,-2.143l-1.789,-13.169c-6.081,-1.572 -11.984,-3.765 -17.617,-6.544l-9.953,8.807c-5.501,-3.053 -10.714,-6.599 -15.575,-10.594m38.047,-28.995c42.192,27.427 96.584,-18.959 90.489,-68.959l-128.536,97.954" style="fill:#fff;"/></svg>