<?xml version="1.0" encoding="UTF-8" standalone="no"?>
<!-- Generator: Adobe Illustrator 19.0.0, SVG Export Plug-In . SVG Version: 6.00 Build 0)  -->

<svg
   xmlns:dc="http://purl.org/dc/elements/1.1/"
   xmlns:cc="http://creativecommons.org/ns#"
   xmlns:rdf="http://www.w3.org/1999/02/22-rdf-syntax-ns#"
   xmlns:svg="http://www.w3.org/2000/svg"
   xmlns="http://www.w3.org/2000/svg"
   xmlns:sodipodi="http://sodipodi.sourceforge.net/DTD/sodipodi-0.dtd"
   xmlns:inkscape="http://www.inkscape.org/namespaces/inkscape"
   version="1.1"
   id="Capa_1"
   x="0px"
   y="0px"
   viewBox="0 0 60 60"
   style="enable-background:new 0 0 60 60;"
   xml:space="preserve"
   sodipodi:docname="folder.svg"
   inkscape:version="0.92.4 (5da689c313, 2019-01-14)"><metadata
   id="metadata39"><rdf:RDF><cc:Work
       rdf:about=""><dc:format>image/svg+xml</dc:format><dc:type
         rdf:resource="http://purl.org/dc/dcmitype/StillImage" /><dc:title></dc:title></cc:Work></rdf:RDF></metadata><defs
   id="defs37" /><sodipodi:namedview
   pagecolor="#ffffff"
   bordercolor="#666666"
   borderopacity="1"
   objecttolerance="10"
   gridtolerance="10"
   guidetolerance="10"
   inkscape:pageopacity="0"
   inkscape:pageshadow="2"
   inkscape:window-width="1920"
   inkscape:window-height="986"
   id="namedview35"
   showgrid="false"
   inkscape:zoom="3.9333333"
   inkscape:cx="30"
   inkscape:cy="30"
   inkscape:window-x="-11"
   inkscape:window-y="-11"
   inkscape:window-maximized="1"
   inkscape:current-layer="Capa_1" />
<path
   d="M57.49,21.5H54v-6.268c0-1.507-1.226-2.732-2.732-2.732H26.515l-5-7H2.732C1.226,5.5,0,6.726,0,8.232v43.687l0.006,0  c-0.005,0.563,0.17,1.114,0.522,1.575C1.018,54.134,1.76,54.5,2.565,54.5h44.759c1.156,0,2.174-0.779,2.45-1.813L60,24.649v-0.177  C60,22.75,58.944,21.5,57.49,21.5z M2,8.232C2,7.828,2.329,7.5,2.732,7.5h17.753l5,7h25.782c0.404,0,0.732,0.328,0.732,0.732V21.5  H12.731c-0.144,0-0.287,0.012-0.426,0.036c-0.973,0.163-1.782,0.873-2.023,1.776L2,45.899V8.232z M47.869,52.083  c-0.066,0.245-0.291,0.417-0.545,0.417H2.565c-0.243,0-0.385-0.139-0.448-0.222c-0.063-0.082-0.16-0.256-0.123-0.408l10.191-27.953  c0.066-0.245,0.291-0.417,0.545-0.417H54h3.49c0.38,0,0.477,0.546,0.502,0.819L47.869,52.083z"
   id="path2"
   style="fill:#00a1e2;fill-opacity:1" />
<g
   id="g4"
   style="fill:#00a1e2;fill-opacity:1">
</g>
<g
   id="g6"
   style="fill:#00a1e2;fill-opacity:1">
</g>
<g
   id="g8"
   style="fill:#00a1e2;fill-opacity:1">
</g>
<g
   id="g10"
   style="fill:#00a1e2;fill-opacity:1">
</g>
<g
   id="g12"
   style="fill:#00a1e2;fill-opacity:1">
</g>
<g
   id="g14"
   style="fill:#00a1e2;fill-opacity:1">
</g>
<g
   id="g16"
   style="fill:#00a1e2;fill-opacity:1">
</g>
<g
   id="g18"
   style="fill:#00a1e2;fill-opacity:1">
</g>
<g
   id="g20"
   style="fill:#00a1e2;fill-opacity:1">
</g>
<g
   id="g22"
   style="fill:#00a1e2;fill-opacity:1">
</g>
<g
   id="g24"
   style="fill:#00a1e2;fill-opacity:1">
</g>
<g
   id="g26"
   style="fill:#00a1e2;fill-opacity:1">
</g>
<g
   id="g28"
   style="fill:#00a1e2;fill-opacity:1">
</g>
<g
   id="g30"
   style="fill:#00a1e2;fill-opacity:1">
</g>
<g
   id="g32"
   style="fill:#00a1e2;fill-opacity:1">
</g>
</svg>