<?xml version="1.0" encoding="utf-8"?>
<!-- Generator: Adobe Illustrator 22.1.0, SVG Export Plug-In . SVG Version: 6.00 Build 0)  -->
<svg version="1.1" id="Layer_1" xmlns="http://www.w3.org/2000/svg" xmlns:xlink="http://www.w3.org/1999/xlink" x="0px" y="0px"
	 viewBox="0 0 56 44" style="enable-background:new 0 0 56 44;" xml:space="preserve">
<style type="text/css">
	.st0{fill:#FFFFFF;}
</style>
<g id="_x39_10-graph_x40_2x.png">
	<g>
		<path class="st0" d="M54,0H2C0.9,0,0,0.9,0,2v40c0,1.1,0.9,2,2,2h52c1.1,0,2-0.9,2-2V2C56,0.9,55.1,0,54,0z M54,42H2V2h52V42z
			 M7,28c0.3,0,0.6-0.2,0.8-0.4l0,0l4.9-6.5l5.4,15.2l0,0c0.1,0.4,0.5,0.7,0.9,0.7c0.4,0,0.7-0.2,0.9-0.6l0,0l9.9-19.9l5-5l7.4,12.9
			l0,0c0.2,0.3,0.5,0.5,0.9,0.5c0.4,0,0.8-0.3,0.9-0.7l0,0l6-17l0,0C50,7.2,50,7.1,50,7c0-0.6-0.4-1-1-1c-0.4,0-0.8,0.3-0.9,0.7l0,0
			l-5.3,14.9L35.9,9.5l0,0C35.7,9.2,35.4,9,35,9c-0.3,0-0.5,0.1-0.7,0.3l-6,6l0,0c-0.1,0.1-0.1,0.2-0.2,0.3l0,0l-8.9,17.9l-5.2-14.8
			l0,0C13.8,18.3,13.4,18,13,18c-0.3,0-0.6,0.2-0.8,0.4l0,0l-6,8l0,0C6.1,26.6,6,26.8,6,27C6,27.6,6.4,28,7,28z"/>
	</g>
</g>
</svg>
