<?xml version="1.0" encoding="utf-8"?>
<!-- Generator: Adobe Illustrator 18.1.1, SVG Export Plug-In . SVG Version: 6.00 Build 0)  -->
<!DOCTYPE svg PUBLIC "-//W3C//DTD SVG 1.1//EN" "http://www.w3.org/Graphics/SVG/1.1/DTD/svg11.dtd" [
	<!ENTITY ns_extend "http://ns.adobe.com/Extensibility/1.0/">
	<!ENTITY ns_ai "http://ns.adobe.com/AdobeIllustrator/10.0/">
	<!ENTITY ns_graphs "http://ns.adobe.com/Graphs/1.0/">
	<!ENTITY ns_vars "http://ns.adobe.com/Variables/1.0/">
	<!ENTITY ns_imrep "http://ns.adobe.com/ImageReplacement/1.0/">
	<!ENTITY ns_sfw "http://ns.adobe.com/SaveForWeb/1.0/">
	<!ENTITY ns_custom "http://ns.adobe.com/GenericCustomNamespace/1.0/">
	<!ENTITY ns_adobe_xpath "http://ns.adobe.com/XPath/1.0/">
]>
<svg version="1.1" id="Layer_1" xmlns:x="&ns_extend;" xmlns:i="&ns_ai;" xmlns:graph="&ns_graphs;"
	 xmlns="http://www.w3.org/2000/svg" xmlns:xlink="http://www.w3.org/1999/xlink" x="0px" y="0px" viewBox="2366 0 200 200"
	 enable-background="new 2366 0 200 200" xml:space="preserve">
<metadata>
	<sfw  xmlns="&ns_sfw;">
		<slices></slices>
		<sliceSourceBounds  width="2810" height="1806.3" bottomLeftOrigin="true" y="-1606.3" x="0"></sliceSourceBounds>
	</sfw>
</metadata>
<g>
	<path fill="#FFFFFF" d="M2566,125.2c0-0.9-0.3-1.7-1-2.4l-21-21c-1.3-1.3-3.4-1.3-4.7,0l-63.1,63.1c-0.4,0.4-0.7,0.8-0.8,1.3
		l-9.3,29.4c-0.4,1.2-0.1,2.4,0.8,3.3c0.6,0.6,1.5,1,2.4,1c0.3,0,0.6,0,0.9-0.1l30.3-8.4c0.1,0,0.1-0.1,0.2-0.1
		c0.1,0,0.3-0.1,0.4-0.2c0.1,0,0.2-0.1,0.2-0.1c0.2-0.1,0.4-0.3,0.6-0.5c0.1-0.1,0.1-0.1,0.2-0.2l62.9-62.9
		C2565.7,126.9,2566,126.1,2566,125.2z M2499.6,183.6l-16.3-16.3l41.5-41.5l16.3,16.3L2499.6,183.6z M2480.2,173.5l13.1,13.1
		l-18.9,5.2L2480.2,173.5z M2545.9,137.3l-16.3-16.3l12.1-12.1l16.3,16.3L2545.9,137.3z"/>
	<path fill="#FFFFFF" d="M2449.2,173.3h-66.5c-7.4,0-10-2.6-10-10v-130h26.7V40h-16.6c-1.8,0-3.3,1.5-3.3,3.3v120
		c0,1.8,1.5,3.3,3.3,3.3h62.3c1.8,0,3.3-1.5,3.3-3.4c0-1.8-1.5-3.3-3.3-3.3h-59V46.6h13.3v10c0,1.8,1.5,3.3,3.3,3.3h66.7
		c1.9,0,3.4-1.5,3.3-3.4v-10h13.4V80c0,1.8,1.5,3.3,3.3,3.3c1.9,0,3.4-1.5,3.3-3.3V43.3c0-1.8-1.5-3.3-3.3-3.3h-16.7v-6.7h26.7V79
		c0,1.8,1.5,3.3,3.3,3.3c1.8,0,3.3-1.5,3.3-3.3V30c0-1.8-1.5-3.3-3.3-3.3h-30v-10c0-1.8-1.5-3.3-3.3-3.3h-12.9
		c-1-5.3-5-13.3-19.8-13.3c-14.9,0-18.8,8.1-19.8,13.3h-14.1c-1.8,0-3.3,1.5-3.3,3.3v10h-30c-1.8,0-3.3,1.5-3.3,3.3v133.3
		c0,11.1,5.6,16.7,16.7,16.7h66.5c1.9,0,3.4-1.5,3.3-3.4C2452.5,174.8,2451,173.3,2449.2,173.3z M2419.8,20c1.8,0,3.3-1.5,3.3-3.3
		c0-6.6,4.5-10,13.5-10c8.9,0,13.5,3.4,13.5,10c0,1.8,1.5,3.3,3.3,3.3h12.6v33.3h-60l0-33.3H2419.8z"/>
	<path fill="#FFFFFF" d="M2453.4,73.4h-42c-1.8,0-3.3,1.5-3.3,3.3c0,1.8,1.5,3.3,3.3,3.3h42c1.8,0,3.3-1.5,3.3-3.3
		C2456.7,74.9,2455.3,73.4,2453.4,73.4z"/>
	<path fill="#FFFFFF" d="M2453.4,93.4h-42c-1.8,0-3.3,1.5-3.3,3.3c0,1.8,1.5,3.3,3.3,3.3h42c1.8,0,3.3-1.5,3.3-3.3
		C2456.7,94.9,2455.3,93.4,2453.4,93.4z"/>
	<path fill="#FFFFFF" d="M2453.4,113.4h-42c-1.8,0-3.3,1.5-3.3,3.3c0,1.8,1.5,3.3,3.3,3.3h42c1.8,0,3.3-1.5,3.3-3.3
		C2456.7,114.9,2455.3,113.4,2453.4,113.4z"/>
	<path fill="#FFFFFF" d="M2436.6,140c1.8,0,3.3-1.5,3.3-3.3c0-1.8-1.5-3.3-3.3-3.3h-25.2c-1.8,0-3.3,1.5-3.3,3.3
		c0,1.8,1.5,3.3,3.3,3.3H2436.6z"/>
</g>
</svg>
