<?xml version="1.0" encoding="UTF-8" standalone="no"?><!DOCTYPE svg PUBLIC "-//W3C//DTD SVG 1.1//EN" "http://www.w3.org/Graphics/SVG/1.1/DTD/svg11.dtd"><svg width="100%" height="100%" viewBox="0 0 500 500" version="1.1" xmlns="http://www.w3.org/2000/svg" xmlns:xlink="http://www.w3.org/1999/xlink" xml:space="preserve" xmlns:serif="http://www.serif.com/" style="fill-rule:evenodd;clip-rule:evenodd;stroke-linejoin:round;stroke-miterlimit:1.41421;"><path d="M242.984,48.028c105,0 190.247,85.247 190.247,190.247c0,105 -85.247,190.247 -190.247,190.247c-105,0 -190.247,-85.247 -190.247,-190.247c0,-105 85.247,-190.247 190.247,-190.247Zm0,9.869c99.553,0 180.378,80.825 180.378,180.378c0,99.553 -80.825,180.378 -180.378,180.378c-99.553,0 -180.378,-80.825 -180.378,-180.378c0,-99.553 80.825,-180.378 180.378,-180.378Z" style="fill:#fff;"/><path d="M67.342,297.999l31.693,28.157l-38.459,13.694l6.766,-41.851Z" style="fill:#fff;"/><circle cx="242.362" cy="53.804" r="44.813" style="fill:#fff;"/><circle cx="421.094" cy="206.925" r="44.813" style="fill:#fff;"/><circle cx="424.708" cy="286.97" r="44.813" style="fill:#fff;"/><circle cx="238.699" cy="420.737" r="44.813" style="fill:#fff;"/><circle cx="59.79" cy="248.642" r="44.813" style="fill:#fff;"/><path d="M246.762,78.803l0,-11.971l-21.691,0l0,-5.627l22.816,-32.4l5.013,0l0,32.4l6.753,0l0,5.627l-6.753,0l0,11.971l-6.138,0Zm0,-17.598l0,-22.543l-15.654,22.543l15.654,0Z" style="fill:#c6c6c6;fill-rule:nonzero;"/><path d="M405.815,218.827l6.446,-0.546c0.477,3.138 1.585,5.497 3.325,7.077c1.739,1.58 3.837,2.37 6.292,2.37c2.956,0 5.457,-1.114 7.503,-3.342c2.046,-2.228 3.069,-5.184 3.069,-8.867c0,-3.502 -0.983,-6.264 -2.95,-8.288c-1.966,-2.023 -4.541,-3.035 -7.724,-3.035c-1.978,0 -3.763,0.449 -5.355,1.347c-1.591,0.898 -2.842,2.064 -3.751,3.496l-5.764,-0.75l4.843,-25.681l24.862,0l0,5.866l-19.951,0l-2.694,13.437c3.001,-2.092 6.15,-3.137 9.447,-3.137c4.365,0 8.048,1.511 11.05,4.535c3.001,3.024 4.501,6.912 4.501,11.664c0,4.525 -1.318,8.435 -3.956,11.732c-3.206,4.047 -7.582,6.071 -13.13,6.071c-4.547,0 -8.259,-1.273 -11.135,-3.82c-2.876,-2.546 -4.519,-5.923 -4.928,-10.129Z" style="fill:#c6c6c6;fill-rule:nonzero;"/><path d="M432.552,311.969l-6.139,0l0,-39.118c-1.477,1.409 -3.416,2.819 -5.814,4.229c-2.399,1.409 -4.553,2.467 -6.463,3.172l0,-5.935c3.433,-1.614 6.434,-3.569 9.003,-5.866c2.57,-2.296 4.388,-4.524 5.457,-6.684l3.956,0l0,50.202Z" style="fill:#c6c6c6;fill-rule:nonzero;"/><path d="M255.683,439.836l0,5.9l-33.047,0c-0.045,-1.478 0.193,-2.899 0.716,-4.263c0.842,-2.251 2.189,-4.468 4.042,-6.651c1.853,-2.183 4.53,-4.706 8.031,-7.571c5.434,-4.456 9.106,-7.986 11.016,-10.59c1.91,-2.603 2.865,-5.064 2.865,-7.383c0,-2.433 -0.87,-4.485 -2.609,-6.156c-1.739,-1.671 -4.007,-2.507 -6.804,-2.507c-2.956,0 -5.32,0.887 -7.094,2.66c-1.773,1.774 -2.671,4.229 -2.694,7.367l-6.309,-0.648c0.432,-4.707 2.057,-8.293 4.877,-10.76c2.819,-2.467 6.605,-3.7 11.356,-3.7c4.798,0 8.595,1.33 11.391,3.99c2.797,2.66 4.195,5.957 4.195,9.89c0,2.001 -0.409,3.968 -1.227,5.9c-0.819,1.933 -2.178,3.968 -4.076,6.105c-1.898,2.137 -5.053,5.07 -9.464,8.799c-3.683,3.092 -6.048,5.19 -7.094,6.292c-1.046,1.103 -1.91,2.211 -2.592,3.326l24.521,0Z" style="fill:#c6c6c6;fill-rule:nonzero;"/><path d="M44.545,260.442l6.139,-0.819c0.705,3.479 1.904,5.986 3.598,7.52c1.694,1.535 3.757,2.303 6.19,2.303c2.888,0 5.326,-1.001 7.315,-3.002c1.99,-2.001 2.985,-4.479 2.985,-7.435c0,-2.819 -0.921,-5.144 -2.763,-6.974c-1.841,-1.83 -4.183,-2.745 -7.025,-2.745c-1.16,0 -2.604,0.227 -4.332,0.682l0.682,-5.389c0.41,0.046 0.739,0.068 0.989,0.068c2.615,0 4.968,-0.682 7.06,-2.046c2.092,-1.364 3.138,-3.467 3.138,-6.309c0,-2.251 -0.762,-4.116 -2.285,-5.593c-1.524,-1.478 -3.49,-2.217 -5.9,-2.217c-2.388,0 -4.377,0.75 -5.969,2.251c-1.591,1.5 -2.614,3.751 -3.069,6.752l-6.139,-1.091c0.75,-4.115 2.456,-7.304 5.116,-9.566c2.66,-2.263 5.968,-3.394 9.924,-3.394c2.729,0 5.241,0.586 7.537,1.757c2.297,1.171 4.053,2.768 5.269,4.791c1.217,2.024 1.825,4.173 1.825,6.446c0,2.16 -0.58,4.127 -1.739,5.9c-1.16,1.774 -2.876,3.183 -5.15,4.229c2.956,0.682 5.252,2.098 6.889,4.246c1.637,2.149 2.456,4.837 2.456,8.066c0,4.365 -1.592,8.066 -4.775,11.101c-3.183,3.035 -7.207,4.553 -12.073,4.553c-4.388,0 -8.032,-1.307 -10.931,-3.922c-2.899,-2.615 -4.553,-6.002 -4.962,-10.163Z" style="fill:#c6c6c6;fill-rule:nonzero;"/><path d="M193.313,59.404l-29.368,30.574l-12.188,-38.962l41.556,8.388Z" style="fill:#fff;"/><path d="M410.361,159.083l-32.616,-27.083l37.98,-14.97l-5.364,42.053Z" style="fill:#fff;"/><path d="M287.217,418.08l31.337,-28.553l9.569,39.688l-40.906,-11.135Z" style="fill:#fff;"/></svg>