<?xml version="1.0" encoding="utf-8"?>
<!-- Generator: Adobe Illustrator 17.1.0, SVG Export Plug-In . SVG Version: 6.00 Build 0)  -->
<!DOCTYPE svg PUBLIC "-//W3C//DTD SVG 1.1//EN" "http://www.w3.org/Graphics/SVG/1.1/DTD/svg11.dtd">
<svg version="1.1" id="Layer_1" xmlns="http://www.w3.org/2000/svg" xmlns:xlink="http://www.w3.org/1999/xlink" x="0px" y="0px"
	 viewBox="0 0 50 50" enable-background="new 0 0 50 50" xml:space="preserve">
<g>
	<g>
		<path fill="#24A1DC" d="M11.986,48.602c-2.232,0-4.298-0.843-5.853-2.41l-1.995-1.995c-3.36-3.36-3.36-9.023,0-12.383
			l10.971-10.971c2.291-2.291,4.856-3.408,7.385-3.229c2.612,0.19,5.129,1.722,7.088,4.334l-1.591,1.199
			c-1.603-2.137-3.609-3.396-5.628-3.538c-1.971-0.142-3.93,0.748-5.83,2.648L5.563,33.226c-2.541,2.541-2.541,7.017,0,9.558
			l1.995,1.995c1.27,1.27,2.992,1.912,4.832,1.817c2.018-0.107,4.001-1.08,5.723-2.814l7.979-7.979l1.413,1.413l-7.979,7.979
			c-2.078,2.078-4.5,3.253-7.029,3.396C12.319,48.59,12.153,48.602,11.986,48.602z"/>
	</g>
	<g>
		<path fill="#24A1DC" d="M28.336,33.333c-0.261,0-0.534-0.012-0.796-0.036c-2.303-0.226-4.393-1.425-5.58-3.206l1.662-1.104
			c0.843,1.27,2.422,2.161,4.12,2.327c1.662,0.166,3.194-0.356,4.322-1.484l11.968-11.968c1.259-1.259,1.923-2.731,1.923-4.286
			s-0.665-3.028-1.923-4.286l-1.995-1.995c-2.553-2.553-7.005-3.562-9.558-0.997l-8.976,8.976l-1.413-1.413l8.976-8.976
			c3.408-3.408,9.142-2.232,12.383,0.997l1.995,1.995c1.615,1.615,2.505,3.633,2.505,5.687s-0.89,4.084-2.505,5.687L33.476,31.22
			C32.099,32.609,30.306,33.333,28.336,33.333z"/>
	</g>
</g>
</svg>
