<?xml version="1.0" encoding="utf-8"?>
<!-- Generator: Adobe Illustrator 17.1.0, SVG Export Plug-In . SVG Version: 6.00 Build 0)  -->
<!DOCTYPE svg PUBLIC "-//W3C//DTD SVG 1.1//EN" "http://www.w3.org/Graphics/SVG/1.1/DTD/svg11.dtd">
<svg version="1.1" id="Layer_1" xmlns="http://www.w3.org/2000/svg" xmlns:xlink="http://www.w3.org/1999/xlink" x="0px" y="0px"
	 viewBox="0 0 50 50" enable-background="new 0 0 50 50" xml:space="preserve">
<path fill="#24A1DC" d="M45.19,17.527h-0.813V4.908L42.722,5.73c-7.994,3.978-15.533,7.732-33.301,7.732H6.982
	c-3.648,0-6.503,3.213-6.503,7.316v4.065c0,3.832,2.671,6.503,6.503,6.503h2.439c2.032,0,3.919,0.058,5.69,0.155
	c0.058,6.232,3.319,11.875,8.362,14.391l0.726-1.452c-4.394-2.197-7.365-7.336-7.461-12.833c12.039,0.91,18.368,4.084,25.007,7.413
	l2.623,1.306V27.282h0.813c2.284,0,4.065-1.597,4.065-3.639v-2.052C49.254,19.424,47.348,17.527,45.19,17.527z M6.982,29.721
	c-2.961,0-4.878-1.916-4.878-4.878v-4.065c0-2.797,1.819-5.69,4.878-5.69h2.439c2.023,0,3.91-0.048,5.69-0.145v14.933
	c-1.781-0.097-3.668-0.155-5.69-0.155H6.982L6.982,29.721z M42.751,37.696L42.48,37.56c-6.523-3.271-13.229-6.629-25.743-7.578
	V14.856c12.649-0.861,19.288-3.978,26.014-7.326v9.997v9.755V37.696z M47.629,23.644c0,1.258-1.239,2.013-2.439,2.013h-0.813v-6.503
	h0.813c1.258,0,2.439,1.181,2.439,2.439V23.644z"/>
</svg>
