<?xml version="1.0" encoding="utf-8"?>
<!-- Generator: Adobe Illustrator 17.1.0, SVG Export Plug-In . SVG Version: 6.00 Build 0)  -->
<!DOCTYPE svg PUBLIC "-//W3C//DTD SVG 1.1//EN" "http://www.w3.org/Graphics/SVG/1.1/DTD/svg11.dtd">
<svg version="1.1" id="Layer_1" xmlns="http://www.w3.org/2000/svg" xmlns:xlink="http://www.w3.org/1999/xlink" x="0px" y="0px"
	 viewBox="0 0 50 50" enable-background="new 0 0 50 50" xml:space="preserve">
<g>
	<path fill="#FFFFFF" d="M49.126,3.768c-12.02,0-21.297,2.457-24.082,6.102C22.259,6.226,12.983,3.768,0.963,3.768h-0.86v37.505
		h0.86c13.894,0,23.222,3.481,23.222,6.727h1.72c0-3.246,9.328-6.727,23.222-6.727h0.86V3.768H49.126z M1.823,39.563V5.499
		c13.413,0.143,22.362,3.543,22.362,6.727v32.539C20.744,41.703,12.42,39.666,1.823,39.563z M48.266,39.563
		c-10.597,0.102-18.921,2.14-22.362,5.201V12.226c0-3.184,8.949-6.584,22.362-6.727V39.563z"/>
	<path fill="#FFFFFF" d="M5.468,15.246c5.447,0.369,10.362,1.3,13.843,2.631l0.614-1.607c-3.635-1.392-8.734-2.365-14.345-2.744
		L5.468,15.246z"/>
	<path fill="#FFFFFF" d="M5.468,21.758c5.447,0.369,10.372,1.3,13.843,2.631l0.614-1.607c-3.635-1.392-8.734-2.365-14.345-2.744
		L5.468,21.758z"/>
	<path fill="#FFFFFF" d="M44.621,15.246l-0.113-1.72c-5.611,0.379-10.71,1.352-14.345,2.744l0.614,1.607
		C34.259,16.557,39.174,15.615,44.621,15.246z"/>
	<path fill="#FFFFFF" d="M44.621,21.758l-0.113-1.72c-5.611,0.379-10.71,1.352-14.345,2.744l0.614,1.607
		C34.249,23.058,39.174,22.127,44.621,21.758z"/>
	<path fill="#FFFFFF" d="M5.468,28.26c5.447,0.369,10.362,1.3,13.843,2.631l0.614-1.607c-3.635-1.392-8.734-2.365-14.345-2.744
		L5.468,28.26z"/>
	<path fill="#FFFFFF" d="M5.468,34.772c5.447,0.369,10.372,1.3,13.843,2.631l0.614-1.607c-3.635-1.392-8.734-2.365-14.345-2.744
		L5.468,34.772z"/>
	<path fill="#FFFFFF" d="M30.164,29.294l0.614,1.607c3.481-1.331,8.406-2.263,13.843-2.631l-0.113-1.72
		C38.897,26.929,33.798,27.901,30.164,29.294z"/>
	<path fill="#FFFFFF" d="M30.164,35.795l0.614,1.607c3.481-1.331,8.396-2.263,13.843-2.631l-0.113-1.72
		C38.887,33.43,33.798,34.403,30.164,35.795z"/>
</g>
</svg>
