<?xml version="1.0" encoding="UTF-8" standalone="no"?><!DOCTYPE svg PUBLIC "-//W3C//DTD SVG 1.1//EN" "http://www.w3.org/Graphics/SVG/1.1/DTD/svg11.dtd"><svg width="100%" height="100%" viewBox="0 0 500 500" version="1.1" xmlns="http://www.w3.org/2000/svg" xmlns:xlink="http://www.w3.org/1999/xlink" xml:space="preserve" xmlns:serif="http://www.serif.com/" style="fill-rule:evenodd;clip-rule:evenodd;stroke-linejoin:round;stroke-miterlimit:1.41421;"><g><path d="M218.897,131.55l0,-81.497l30.742,0c5.411,0 9.543,0.259 12.397,0.778c4.002,0.667 7.356,1.937 10.062,3.808c2.705,1.872 4.882,4.494 6.532,7.866c1.649,3.373 2.473,7.079 2.473,11.119c0,6.93 -2.205,12.795 -6.615,17.594c-4.41,4.8 -12.378,7.199 -23.904,7.199l-20.903,0l0,33.133l-10.784,0Zm10.784,-42.75l21.069,0c6.968,0 11.916,-1.297 14.843,-3.891c2.928,-2.595 4.392,-6.245 4.392,-10.952c0,-3.409 -0.862,-6.328 -2.585,-8.755c-1.723,-2.428 -3.993,-4.031 -6.81,-4.809c-1.816,-0.482 -5.17,-0.723 -10.062,-0.723l-20.847,0l0,29.13Z" style="fill:#fff;fill-rule:nonzero;"/><path d="M275.238,420.124l10.785,2.724c-2.261,8.858 -6.328,15.612 -12.202,20.263c-5.874,4.652 -13.055,6.977 -21.542,6.977c-8.783,0 -15.927,-1.788 -21.43,-5.364c-5.504,-3.577 -9.692,-8.756 -12.564,-15.538c-2.872,-6.782 -4.308,-14.065 -4.308,-21.848c0,-8.487 1.621,-15.889 4.864,-22.208c3.243,-6.319 7.857,-11.119 13.842,-14.398c5.986,-3.28 12.573,-4.92 19.763,-4.92c8.153,0 15.01,2.075 20.569,6.226c5.559,4.151 9.432,9.988 11.618,17.511l-10.618,2.502c-1.89,-5.93 -4.632,-10.248 -8.227,-12.953c-3.595,-2.705 -8.116,-4.058 -13.564,-4.058c-6.264,0 -11.498,1.501 -15.705,4.503c-4.206,3.002 -7.162,7.032 -8.867,12.091c-1.705,5.059 -2.557,10.275 -2.557,15.649c0,6.93 1.01,12.98 3.03,18.15c2.02,5.17 5.161,9.034 9.423,11.591c4.262,2.557 8.876,3.836 13.842,3.836c6.041,0 11.155,-1.742 15.343,-5.226c4.188,-3.483 7.023,-8.653 8.505,-15.51Z" style="fill:#fff;fill-rule:nonzero;"/></g><g><path d="M392.572,290.748l0,-81.496l28.074,0c6.337,0 11.174,0.389 14.509,1.167c4.67,1.075 8.654,3.02 11.952,5.837c4.299,3.632 7.514,8.274 9.645,13.926c2.131,5.651 3.197,12.109 3.197,19.373c0,6.189 -0.723,11.674 -2.168,16.455c-1.445,4.781 -3.298,8.737 -5.559,11.869c-2.261,3.132 -4.735,5.596 -7.422,7.394c-2.687,1.797 -5.929,3.159 -9.728,4.086c-3.799,0.926 -8.163,1.389 -13.092,1.389l-29.408,0Zm10.785,-9.617l17.4,0c5.374,0 9.59,-0.5 12.647,-1.501c3.058,-1 5.494,-2.409 7.31,-4.225c2.558,-2.557 4.55,-5.994 5.976,-10.312c1.427,-4.318 2.141,-9.552 2.141,-15.705c0,-8.524 -1.399,-15.074 -4.197,-19.651c-2.799,-4.577 -6.199,-7.644 -10.201,-9.2c-2.891,-1.112 -7.542,-1.668 -13.954,-1.668l-17.122,0l0,62.262Z" style="fill:#fff;fill-rule:nonzero;"/><path d="M40.051,290.748l31.298,-81.496l11.619,0l33.354,81.496l-12.285,0l-9.506,-24.682l-34.078,0l-8.95,24.682l-11.452,0Zm23.515,-33.466l27.629,0l-8.505,-22.57c-2.595,-6.856 -4.522,-12.489 -5.782,-16.899c-1.038,5.225 -2.502,10.414 -4.392,15.565l-8.95,23.904Z" style="fill:#fff;fill-rule:nonzero;"/></g><g><path d="M302.129,180.032c-15.063,-11.222 -33.345,-17.284 -52.129,-17.284c-48.156,0 -87.252,39.096 -87.252,87.252c0,48.156 39.096,87.252 87.252,87.252c45.749,0 83.275,-35.21 86.956,-80.009c0.133,-1.862 -0.514,-3.695 -1.786,-5.061c-1.272,-1.366 -3.055,-2.142 -4.921,-2.142c-0.001,-0.04 -0.001,-0.04 -0.002,-0.04c-3.437,0 -6.289,2.658 -6.531,6.086c-3.059,38.024 -34.897,67.915 -73.716,67.915c-40.842,0 -74.001,-33.159 -74.001,-74.001c0,-40.842 33.159,-74.001 74.001,-74.001c15.931,0 31.437,5.141 44.212,14.659l7.917,-10.626Z" style="fill:#fff;"/><path d="M322.483,200.404c0.695,1.302 0.594,2.886 -0.259,4.09c-0.854,1.204 -2.315,1.822 -3.774,1.597c-7.747,-1.197 -19.496,-3.011 -26.328,-4.067c-1.168,-0.18 -2.159,-0.952 -2.62,-2.041c-0.461,-1.089 -0.325,-2.338 0.359,-3.302c3.884,-5.477 10.403,-14.669 14.287,-20.146c0.684,-0.964 1.818,-1.505 2.998,-1.43c1.18,0.074 2.236,0.755 2.793,1.797c3.255,6.099 8.853,16.587 12.544,23.502Z" style="fill:#fff;"/></g></svg>