<?xml version="1.0" encoding="utf-8"?>
<!-- Generator: Adobe Illustrator 18.1.1, SVG Export Plug-In . SVG Version: 6.00 Build 0)  -->
<!DOCTYPE svg PUBLIC "-//W3C//DTD SVG 1.1//EN" "http://www.w3.org/Graphics/SVG/1.1/DTD/svg11.dtd" [
	<!ENTITY ns_extend "http://ns.adobe.com/Extensibility/1.0/">
	<!ENTITY ns_ai "http://ns.adobe.com/AdobeIllustrator/10.0/">
	<!ENTITY ns_graphs "http://ns.adobe.com/Graphs/1.0/">
	<!ENTITY ns_vars "http://ns.adobe.com/Variables/1.0/">
	<!ENTITY ns_imrep "http://ns.adobe.com/ImageReplacement/1.0/">
	<!ENTITY ns_sfw "http://ns.adobe.com/SaveForWeb/1.0/">
	<!ENTITY ns_custom "http://ns.adobe.com/GenericCustomNamespace/1.0/">
	<!ENTITY ns_adobe_xpath "http://ns.adobe.com/XPath/1.0/">
]>
<svg version="1.1" id="Layer_1" xmlns:x="&ns_extend;" xmlns:i="&ns_ai;" xmlns:graph="&ns_graphs;"
	 xmlns="http://www.w3.org/2000/svg" xmlns:xlink="http://www.w3.org/1999/xlink" x="0px" y="0px" viewBox="2128 242 200 200"
	 enable-background="new 2128 242 200 200" xml:space="preserve">
<metadata>
	<sfw  xmlns="&ns_sfw;">
		<slices></slices>
		<sliceSourceBounds  width="2810" height="1806.3" bottomLeftOrigin="true" y="-1606.3" x="0"></sliceSourceBounds>
	</sfw>
</metadata>
<g>
	<path fill="#24A1DC" d="M2149.9,374.9c-2.6,0-4.8,2.6-4.8,5.6v54.9c0,3.1,2.2,5.6,4.8,5.6s4.8-2.6,4.8-5.6v-54.9
		C2154.7,377.4,2152.5,374.9,2149.9,374.9z"/>
	<path fill="#24A1DC" d="M2202,353c-2.6,0-4.8,2.2-4.8,4.8v78.6c0,2.6,2.2,4.8,4.8,4.8s4.8-2.2,4.8-4.8v-78.5
		C2206.8,355.2,2204.6,353,2202,353z"/>
	<path fill="#24A1DC" d="M2206.8,436.3c0,2.6-2.2,4.8-4.8,4.8s-4.8-2.2-4.8-4.8v-78.5c0-2.6,2.2-4.8,4.8-4.8s4.8,2.2,4.8,4.8V436.3z
		"/>
	<path fill="#24A1DC" d="M2254.1,326.8c-2.6,0-4.8,2-4.8,4.5v105.3c0,2.5,2.2,4.5,4.8,4.5s4.8-2,4.8-4.5V331.3
		C2258.9,328.8,2256.7,326.8,2254.1,326.8z"/>
	<path fill="#24A1DC" d="M2258.9,436.6c0,2.5-2.2,4.5-4.8,4.5s-4.8-2-4.8-4.5V331.3c0-2.5,2.2-4.5,4.8-4.5s4.8,2,4.8,4.5V436.6z"/>
	<path fill="#24A1DC" d="M2306.2,254.1c-2.6,0-4.8,2.2-4.8,4.8v177.4c0,2.6,2.2,4.8,4.8,4.8s4.8-2.2,4.8-4.8V259
		C2311,256.3,2308.9,254.1,2306.2,254.1z"/>
	<path fill="#24A1DC" d="M2311,436.3c0,2.6-2.2,4.8-4.8,4.8s-4.8-2.2-4.8-4.8V259c0-2.6,2.2-4.8,4.8-4.8s4.8,2.2,4.8,4.8V436.3z"/>
	<path fill="#24A1DC" d="M2285.8,278.7c0.5-1.2,0.5-2.5,0-3.7l-11.8-28.9c-0.5-1.2-1.5-2.2-2.8-2.7c-1.2-0.5-2.7-0.4-3.9,0.2
		l-25.7,13.1c-1.1,0.6-2,1.6-2.4,2.8c-0.4,1.2-0.3,2.5,0.3,3.7c0.8,1.6,2.5,2.6,4.3,2.6c0.7,0,1.5-0.2,2.2-0.5l16.2-8.2l-1,2.9
		c-20.4,62.3-64.9,71.6-89.6,71.6c-10,0-16.7-1.5-17-1.6c-0.4-0.1-0.7-0.1-1.1-0.1c-2.2,0-4.1,1.5-4.7,3.7c-0.6,2.6,1,5.2,3.6,5.8
		c0,0,0,0,0.1,0c2.4,0.5,8.9,1.6,18.1,1.6c27.1,0,76-9.7,98.7-74.6l1.1-3.2l6.3,15.5c0.7,1.8,2.5,3,4.5,3c0.6,0,1.3-0.1,1.8-0.4
		C2284.3,280.8,2285.3,279.9,2285.8,278.7z"/>
	<path fill="#24A1DC" d="M2276.8,278.6l-6.3-15.5l-1.1,3.2c-22.8,64.9-71.7,74.6-98.7,74.6c-9.2,0-15.7-1.1-18.1-1.6
		c0,0-0.1,0-0.1,0c-2.6-0.6-4.2-3.2-3.6-5.8c0.5-2.2,2.4-3.7,4.7-3.7c0.4,0,0.7,0,1.1,0.1c0.3,0,7,1.6,17,1.6
		c24.7,0,69.2-9.3,89.6-71.6l1-2.9l-16.2,8.2c-0.7,0.4-1.4,0.5-2.2,0.5c-1.8,0-3.5-1-4.3-2.6c-0.6-1.1-0.7-2.5-0.3-3.7
		c0.4-1.2,1.2-2.2,2.4-2.8l25.7-13.1c1.2-0.6,2.6-0.7,3.9-0.2c1.3,0.5,2.3,1.5,2.8,2.7l11.8,28.9c0.5,1.2,0.5,2.6,0,3.7
		c-0.5,1.2-1.5,2.1-2.6,2.6c-0.5,0.2-1.2,0.4-1.8,0.4C2279.3,281.6,2277.6,280.4,2276.8,278.6z"/>
</g>
</svg>
